<svg width="16" height="16" viewBox="0 0 16 16" fill="none" xmlns="http://www.w3.org/2000/svg">
<path d="M2.96711 9.27214L7.60218 13.6263C7.65402 13.675 7.67995 13.6993 7.70463 13.7174C7.88049 13.8462 8.11949 13.8462 8.29535 13.7174C8.32003 13.6993 8.34595 13.675 8.3978 13.6263L13.0329 9.27214C14.337 8.04706 14.4954 6.03106 13.3985 4.61738L13.1923 4.35156C11.8802 2.66038 9.24641 2.94401 8.32443 4.87576C8.1942 5.14864 7.80578 5.14864 7.67554 4.87576C6.75357 2.94401 4.1198 2.66038 2.80769 4.35156L2.60145 4.61738C1.50462 6.03106 1.66299 8.04706 2.96711 9.27214Z" stroke="#5F5F5F" stroke-width="2"/>
</svg>
